<svg width="1265" height="430" viewBox="0 0 1265 430" fill="none" xmlns="http://www.w3.org/2000/svg">
<path d="M1055.43 418.789C1051.67 418.789 1048.36 416.321 1047.28 412.719L963.063 131.303C961.43 125.845 965.518 120.354 971.215 120.354H1043.2C1047.01 120.354 1050.36 122.891 1051.39 126.561L1130.47 407.978C1132 413.405 1127.92 418.789 1122.28 418.789H1055.43ZM1084.84 418.789C1080.14 418.789 1076.33 414.979 1076.33 410.28V354.868C1076.33 350.168 1080.14 346.359 1084.84 346.359H1155.5C1160.2 346.359 1164.01 350.168 1164.01 354.868V410.28C1164.01 414.979 1160.2 418.789 1155.5 418.789H1084.84ZM1119.28 418.789C1113.77 418.789 1109.71 413.629 1111.01 408.273L1179.31 126.857C1180.24 123.041 1183.65 120.354 1187.58 120.354H1253.76C1259.33 120.354 1263.39 125.61 1262 130.998L1189.08 412.414C1188.1 416.168 1184.72 418.789 1180.84 418.789H1119.28Z" fill="#0F2844"/>
<path d="M830.541 429.136C804.764 429.136 782.254 424.961 763.012 416.61C744.133 407.897 728.34 396.279 715.633 381.757C702.926 367.234 693.486 350.897 687.314 332.744C681.142 314.228 678.056 295.167 678.056 275.562V265.215C678.056 244.883 681.324 225.46 687.859 206.944C694.394 188.065 704.015 171.364 716.722 156.842C729.429 142.319 745.222 130.883 764.101 122.533C783.343 114.182 805.308 110.007 829.996 110.007C856.863 110.007 880.643 115.271 901.337 125.8C922.032 135.966 938.551 150.307 950.895 168.823C961.671 184.986 968.296 203.224 970.772 223.537C971.365 228.403 967.451 232.539 962.549 232.539H893.728C889.382 232.539 885.808 229.242 884.804 225.014C882.389 214.848 877.371 206.102 869.751 198.775C860.675 189.335 847.423 184.616 829.996 184.616C815.474 184.616 803.312 188.246 793.509 195.507C784.069 202.769 776.99 212.753 772.27 225.46C767.55 238.167 765.19 253.234 765.19 270.661C765.19 286.635 767.369 301.158 771.725 314.228C776.082 326.935 782.98 336.919 792.42 344.18C802.222 351.078 814.929 354.527 830.541 354.527C842.159 354.527 851.961 352.531 859.949 348.537C868.299 344.18 874.834 338.371 879.554 331.11C883.301 325.49 885.962 319.278 887.539 312.475C888.518 308.251 892.092 304.97 896.428 304.97H964.875C969.722 304.97 973.616 309.017 973.114 313.838C970.917 334.907 964.237 353.735 953.073 370.32C940.366 388.836 923.484 403.359 902.427 413.888C881.369 424.053 857.407 429.136 830.541 429.136Z" fill="#0F2844"/>
<path fill-rule="evenodd" clip-rule="evenodd" d="M566.968 184.616V410.28C566.968 414.979 570.778 418.789 575.477 418.789H654.102V184.616V120.354H566.968H527.213V176.106C527.213 180.806 531.023 184.616 535.722 184.616H566.968Z" fill="#0F2844"/>
<path d="M600.732 90.9463C584.395 90.9463 572.232 86.7711 564.245 78.4208C556.621 69.7074 552.809 58.8156 552.809 45.7454C552.809 32.3123 556.621 21.4205 564.245 13.0701C572.232 4.35671 584.395 0 600.732 0C617.07 0 629.051 4.35671 636.675 13.0701C644.663 21.4205 648.656 32.3123 648.656 45.7454C648.656 58.8156 644.663 69.7074 636.675 78.4208C629.051 86.7711 617.07 90.9463 600.732 90.9463Z" fill="#76CAB9"/>
<path d="M306.476 418.789C301.776 418.789 297.967 414.979 297.967 410.28V360.879C297.967 358.886 298.666 356.957 299.943 355.427L435.18 193.352C436.111 192.237 437.926 192.895 437.926 194.347V194.347C437.926 195.815 436.077 196.464 435.16 195.318L428.403 186.871C427.567 185.827 428.738 184.378 429.934 184.976V184.976C431.111 185.565 430.692 187.339 429.376 187.339H307.021C302.321 187.339 298.511 183.529 298.511 178.829V128.863C298.511 124.164 302.321 120.354 307.021 120.354H524.72C529.419 120.354 533.229 124.164 533.229 128.863V178.264C533.229 180.257 532.53 182.186 531.253 183.716L395.844 345.997C394.972 347.042 393.27 346.425 393.27 345.064V345.064C393.27 343.687 395.003 343.079 395.863 344.154L402.36 352.275C403.219 353.35 401.973 354.824 400.771 354.156V354.156C399.639 353.527 400.085 351.804 401.38 351.804H529.077C533.776 351.804 537.586 355.614 537.586 360.314V410.28C537.586 414.979 533.776 418.789 529.077 418.789H306.476Z" fill="#0F2844"/>
<path d="M155.208 429.136C129.794 429.136 107.284 424.779 87.6788 416.066C68.4366 407.352 52.2805 395.735 39.2104 381.212C26.5033 366.327 16.7007 349.808 9.8026 331.655C3.26753 313.139 0 294.26 0 275.017V264.126C0 244.157 3.26753 225.097 9.8026 206.944C16.7007 188.428 26.5033 171.909 39.2104 157.386C51.9175 142.864 67.7105 131.428 86.5896 123.077C105.832 114.364 127.615 110.007 151.94 110.007C183.889 110.007 210.756 117.268 232.539 131.791C254.686 145.95 271.568 164.647 283.186 187.883C294.804 210.756 300.613 235.807 300.613 263.036V283.935C300.613 288.635 296.803 292.444 292.104 292.444H44.9966C40.2971 292.444 36.4874 288.635 36.4874 283.935V251.396C36.4874 246.696 40.2971 242.887 44.9966 242.887H226.864C233.837 242.887 236.935 251.653 231.51 256.034V256.034C226.674 259.94 219.357 256.49 218.771 250.301C217.698 238.97 215.389 228.874 211.845 220.014C206.762 207.307 199.138 197.686 188.972 191.151C179.17 184.253 166.826 180.804 151.94 180.804C136.692 180.804 123.803 184.253 113.274 191.151C102.746 198.049 94.7584 208.215 89.3125 221.648C83.8667 234.718 81.1437 250.874 81.1437 270.116C81.1437 287.906 83.6851 303.518 88.768 316.951C93.8508 330.021 101.838 340.186 112.73 347.448C123.622 354.709 137.781 358.339 155.208 358.339C171.182 358.339 184.253 355.253 194.418 349.081C202.588 344.121 208.648 338.222 212.597 331.386C214.337 328.373 217.394 326.209 220.874 326.209H284.601C290.031 326.209 294.086 331.236 292.514 336.434C287.715 352.302 280.068 366.683 269.571 379.578C256.864 395.19 240.89 407.352 221.648 416.066C202.405 424.779 180.259 429.136 155.208 429.136Z" fill="#0F2844"/>
</svg>
