<svg width="1265" height="320" viewBox="0 0 1265 320" fill="none" xmlns="http://www.w3.org/2000/svg">
<path d="M1055.43 308.789C1051.67 308.789 1048.36 306.321 1047.28 302.719L963.063 21.303C961.43 15.8446 965.518 10.3542 971.215 10.3542H1043.2C1047.01 10.3542 1050.36 12.8906 1051.39 16.5613L1130.47 297.978C1132 303.405 1127.92 308.789 1122.28 308.789H1055.43ZM1084.84 308.789C1080.14 308.789 1076.33 304.979 1076.33 300.28V244.868C1076.33 240.168 1080.14 236.359 1084.84 236.359H1155.5C1160.2 236.359 1164.01 240.168 1164.01 244.868V300.28C1164.01 304.979 1160.2 308.789 1155.5 308.789H1084.84ZM1119.28 308.789C1113.77 308.789 1109.71 303.629 1111.01 298.273L1179.31 16.8565C1180.24 13.0408 1183.65 10.3542 1187.58 10.3542H1253.76C1259.33 10.3542 1263.39 15.6098 1262 20.9979L1189.08 302.414C1188.1 306.168 1184.72 308.789 1180.84 308.789H1119.28Z" fill="#0F2844"/>
<path d="M830.541 319.136C804.764 319.136 782.254 314.961 763.012 306.61C744.133 297.897 728.34 286.279 715.633 271.757C702.926 257.234 693.486 240.897 687.314 222.744C681.142 204.228 678.056 185.167 678.056 165.562V155.215C678.056 134.883 681.324 115.46 687.859 96.9438C694.394 78.0647 704.015 61.364 716.722 46.8416C729.429 32.3193 745.222 20.8829 764.101 12.5325C783.343 4.18218 805.308 0.00699615 829.996 0.00699615C856.863 0.00699615 880.643 5.27135 901.337 15.8001C922.032 25.9657 938.551 40.3066 950.895 58.8226C961.671 74.9858 968.296 93.2239 970.772 113.537C971.365 118.403 967.451 122.539 962.549 122.539H893.728C889.382 122.539 885.808 119.242 884.804 115.014C882.389 104.848 877.371 96.1018 869.751 88.7749C860.675 79.3354 847.423 74.6157 829.996 74.6157C815.474 74.6157 803.312 78.2462 793.509 85.5074C784.069 92.7686 776.99 102.753 772.27 115.46C767.55 128.167 765.19 143.234 765.19 160.661C765.19 176.635 767.369 191.158 771.725 204.228C776.082 216.935 782.98 226.919 792.42 234.18C802.222 241.078 814.929 244.527 830.541 244.527C842.159 244.527 851.961 242.531 859.949 238.537C868.299 234.18 874.834 228.371 879.554 221.11C883.301 215.49 885.962 209.278 887.539 202.475C888.518 198.251 892.092 194.97 896.428 194.97H964.875C969.722 194.97 973.616 199.017 973.114 203.838C970.917 224.907 964.237 243.735 953.073 260.32C940.366 278.836 923.484 293.359 902.427 303.887C881.369 314.053 857.407 319.136 830.541 319.136Z" fill="#0F2844"/>
<path fill-rule="evenodd" clip-rule="evenodd" d="M566.968 74.6156V300.28C566.968 304.979 570.778 308.789 575.477 308.789H654.102V74.6156V10.3541H566.968H527.213V66.1064C527.213 70.8059 531.023 74.6156 535.722 74.6156H566.968Z" fill="#76C1B5"/>
<path d="M306.476 308.789C301.776 308.789 297.967 304.979 297.967 300.28V250.879C297.967 248.886 298.666 246.957 299.943 245.427L435.18 83.3522C436.111 82.2372 437.926 82.8951 437.926 84.3472V84.3472C437.926 85.8154 436.077 86.4639 435.16 85.3175L428.403 76.8706C427.567 75.8266 428.738 74.3784 429.934 74.9763V74.9763C431.111 75.5648 430.692 77.3386 429.376 77.3386H307.021C302.321 77.3386 298.511 73.5289 298.511 68.8294V18.8634C298.511 14.1639 302.321 10.3542 307.021 10.3542H524.72C529.419 10.3542 533.229 14.1639 533.229 18.8634V68.2644C533.229 70.2568 532.53 72.1861 531.253 73.716L395.844 235.997C394.972 237.042 393.27 236.425 393.27 235.064V235.064C393.27 233.687 395.003 233.079 395.863 234.154L402.36 242.275C403.219 243.35 401.973 244.824 400.771 244.156V244.156C399.639 243.527 400.085 241.804 401.38 241.804H529.077C533.776 241.804 537.586 245.614 537.586 250.314V300.28C537.586 304.979 533.776 308.789 529.077 308.789H306.476Z" fill="#0F2844"/>
<path d="M155.208 319.136C129.794 319.136 107.284 314.779 87.6788 306.066C68.4366 297.352 52.2805 285.735 39.2104 271.212C26.5033 256.327 16.7007 239.808 9.8026 221.655C3.26753 203.139 0 184.26 0 165.017V154.126C0 134.157 3.26753 115.097 9.8026 96.9438C16.7007 78.4278 26.5033 61.9086 39.2104 47.3862C51.9175 32.8638 67.7105 21.4275 86.5896 13.0771C105.832 4.3637 127.615 0.00699615 151.94 0.00699615C183.889 0.00699615 210.756 7.26818 232.539 21.7906C254.686 35.9499 271.568 54.6474 283.186 77.8832C294.804 100.756 300.613 125.807 300.613 153.036V173.935C300.613 178.635 296.803 182.444 292.104 182.444H44.9966C40.2971 182.444 36.4874 178.635 36.4874 173.935V141.396C36.4874 136.696 40.2971 132.887 44.9966 132.887H226.864C233.837 132.887 236.935 141.653 231.51 146.034V146.034C226.674 149.94 219.357 146.49 218.771 140.301C217.698 128.97 215.389 118.874 211.845 110.014C206.762 97.3069 199.138 87.6858 188.972 81.1507C179.17 74.2526 166.826 70.8035 151.94 70.8035C136.692 70.8035 123.803 74.2526 113.274 81.1507C102.746 88.0489 94.7584 98.2145 89.3125 111.648C83.8667 124.718 81.1437 140.874 81.1437 160.116C81.1437 177.906 83.6851 193.518 88.768 206.951C93.8508 220.021 101.838 230.186 112.73 237.448C123.622 244.709 137.781 248.339 155.208 248.339C171.182 248.339 184.253 245.253 194.418 239.081C202.588 234.121 208.648 228.222 212.597 221.386C214.337 218.373 217.394 216.209 220.874 216.209H284.601C290.031 216.209 294.086 221.236 292.514 226.434C287.715 242.302 280.068 256.683 269.571 269.578C256.864 285.19 240.89 297.352 221.648 306.066C202.405 314.779 180.259 319.136 155.208 319.136Z" fill="#0F2844"/>
</svg>
